<svg width="83" height="15" viewBox="0 0 83 15" fill="none" xmlns="http://www.w3.org/2000/svg">
<path d="M0 0.788V2.898H3.368V8.078C3.368 10.38 4.736 10.86 6.735 10.86C7.998 10.86 8.525 10.668 8.525 10.668V8.653C8.525 8.653 8.209 8.749 7.577 8.749C6.63 8.749 6.314 8.461 6.314 7.599V2.897H9.893V0.787H0V0.788ZM9.674 5.776C9.674 8.692 11.463 11.051 15.146 11.051C19.672 11.051 20.303 7.502 20.303 7.502H17.356C17.356 7.502 17.041 9.037 15.252 9.037C13.484 9.037 12.768 7.886 12.642 6.351H20.387C20.387 6.351 20.408 6.006 20.408 5.776C20.408 2.86 18.746 0.5 15.146 0.5C11.547 0.5 9.674 2.86 9.674 5.776ZM15.146 2.514C16.599 2.514 17.188 3.397 17.378 4.624H12.726C12.978 3.397 13.694 2.514 15.146 2.514ZM29.244 8.653H23.877V0.788H20.93V10.764H29.244V8.654V8.653ZM28.914 5.776C28.914 8.692 30.703 11.051 34.386 11.051C38.912 11.051 39.543 7.502 39.543 7.502H36.596C36.596 7.502 36.281 9.037 34.492 9.037C32.724 9.037 32.008 7.886 31.882 6.351H39.627C39.627 6.351 39.648 6.006 39.648 5.776C39.648 2.86 37.986 0.5 34.386 0.5C30.787 0.5 28.914 2.86 28.914 5.776ZM34.386 2.514C35.839 2.514 36.428 3.397 36.617 4.624H31.966C32.218 3.397 32.934 2.514 34.386 2.514ZM39.323 0.788V2.898H42.69V8.078C42.69 10.38 44.059 10.86 46.058 10.86C47.321 10.86 47.848 10.668 47.848 10.668V8.653C47.848 8.653 47.532 8.749 46.9 8.749C45.953 8.749 45.637 8.461 45.637 7.599V2.897H49.215V0.787H39.323V0.788ZM60.476 0.788H57.32L55.152 7.368L52.479 0.788H49.32L53.74 10.764C53.319 11.684 52.898 12.202 51.845 12.202C51.3826 12.1986 50.9226 12.1344 50.477 12.011V14.217C50.477 14.217 51.319 14.504 52.372 14.504C54.582 14.504 55.718 13.334 56.582 11.051L60.475 0.788H60.476ZM60.788 14.217H63.735V9.708H63.84C63.84 9.708 64.787 11.051 67.102 11.051C70.259 11.051 71.838 8.557 71.838 5.776C71.838 2.994 70.259 0.5 67.102 0.5C64.682 0.5 63.734 2.13 63.734 2.13H63.629V0.789H60.788V14.218V14.217ZM63.629 5.776C63.629 3.972 64.471 2.514 66.26 2.514C68.05 2.514 68.891 3.972 68.891 5.776C68.891 7.579 68.049 9.037 66.261 9.037C64.471 9.037 63.629 7.579 63.629 5.776ZM72.266 5.776C72.266 8.692 74.055 11.051 77.738 11.051C82.263 11.051 82.895 7.502 82.895 7.502H79.948C79.948 7.502 79.632 9.037 77.843 9.037C76.075 9.037 75.36 7.886 75.233 6.351H82.979C82.979 6.351 83 6.006 83 5.776C83 2.86 81.337 0.5 77.738 0.5C74.138 0.5 72.266 2.86 72.266 5.776ZM77.738 2.514C79.19 2.514 79.78 3.397 79.969 4.624H75.318C75.57 3.397 76.286 2.514 77.738 2.514Z" fill="#1A1919"/>
</svg>
